<svg width="512" height="512" viewBox="0 0 512 512" fill="none" xmlns="http://www.w3.org/2000/svg">
<path d="M265.926 35.9656C264.7 34.517 263.179 33.3542 261.466 32.5568C259.753 31.7595 257.891 31.3467 256.005 31.3467C254.12 31.3467 252.257 31.7595 250.545 32.5568C248.832 33.3542 247.31 34.517 246.084 35.9656C211.624 76.7371 99.2651 217.692 99.2651 322.103C99.2651 419.402 159.826 480.653 256 480.653C352.174 480.653 412.735 419.402 412.735 322.103C412.735 217.692 300.375 76.7371 265.926 35.9656ZM273.415 423.399C271.323 423.403 269.26 422.9 267.401 421.93C265.542 420.96 263.94 419.553 262.73 417.826C261.52 416.1 260.738 414.105 260.45 412.009C260.161 409.913 260.375 407.777 261.072 405.782C261.963 403.179 263.642 400.926 265.872 399.345C268.102 397.763 270.768 396.934 273.491 396.974C290.78 396.936 307.349 389.972 319.574 377.606C331.799 365.239 338.684 348.477 338.721 330.989C338.681 328.234 339.501 325.537 341.065 323.282C342.628 321.026 344.855 319.327 347.428 318.426C349.401 317.72 351.512 317.505 353.584 317.796C355.656 318.088 357.628 318.879 359.335 320.103C361.042 321.327 362.433 322.947 363.391 324.828C364.35 326.709 364.848 328.795 364.843 330.912C364.817 355.433 355.177 378.942 338.036 396.281C320.895 413.62 297.655 423.373 273.415 423.399Z" fill="#3282FF"/>
<path d="M273.415 423.399C271.323 423.403 269.26 422.9 267.401 421.93C265.542 420.96 263.94 419.553 262.73 417.826C261.52 416.1 260.738 414.105 260.45 412.009C260.161 409.913 260.375 407.777 261.072 405.782C261.963 403.179 263.642 400.926 265.872 399.345C268.102 397.763 270.768 396.934 273.491 396.974C290.78 396.936 307.349 389.972 319.574 377.606C331.799 365.239 338.684 348.477 338.721 330.989C338.681 328.234 339.501 325.537 341.065 323.282C342.628 321.026 344.855 319.327 347.428 318.426C349.401 317.72 351.512 317.505 353.584 317.796C355.656 318.088 357.628 318.879 359.335 320.103C361.042 321.327 362.433 322.947 363.391 324.828C364.35 326.709 364.848 328.795 364.843 330.912C364.817 355.433 355.177 378.942 338.036 396.281C320.895 413.62 297.655 423.373 273.415 423.399Z" fill="#64FAFF"/>
<path d="M451.397 100.785L387.49 77.4895L364.195 13.5819C362.75 9.60211 360.115 6.16356 356.648 3.73357C353.181 1.30357 349.05 0 344.816 0C340.582 0 336.451 1.30357 332.984 3.73357C329.517 6.16356 326.882 9.60211 325.438 13.5819L302.142 77.4895L238.235 100.785C234.255 102.229 230.816 104.864 228.386 108.331C225.956 111.798 224.653 115.929 224.653 120.163C224.653 124.397 225.956 128.528 228.386 131.995C230.816 135.462 234.255 138.097 238.235 139.542L302.142 162.837L325.438 226.745C326.882 230.724 329.517 234.163 332.984 236.593C336.451 239.023 340.582 240.327 344.816 240.327C349.05 240.327 353.181 239.023 356.648 236.593C360.115 234.163 362.75 230.724 364.195 226.745L387.49 162.837L451.397 139.542C455.377 138.097 458.816 135.462 461.246 131.995C463.676 128.528 464.979 124.397 464.979 120.163C464.979 115.929 463.676 111.798 461.246 108.331C458.816 104.864 455.377 102.229 451.397 100.785ZM377.182 140.16C374.35 141.207 371.778 142.855 369.643 144.99C367.508 147.125 365.86 149.697 364.813 152.529L344.816 207.675L324.819 152.529C323.772 149.697 322.124 147.125 319.989 144.99C317.854 142.855 315.282 141.207 312.45 140.16L257.304 120.163L312.45 100.166C315.282 99.1192 317.854 97.4715 319.989 95.3363C322.124 93.2012 323.772 90.6293 324.819 87.7972L344.816 32.6511L364.813 87.7972C365.86 90.6293 367.508 93.2012 369.643 95.3363C371.778 97.4715 374.35 99.1192 377.182 100.166L432.328 120.163L377.182 140.16Z" fill="#64FAFF"/>
<path d="M377.182 140.16C374.35 141.207 371.778 142.855 369.643 144.99C367.508 147.125 365.86 149.697 364.813 152.529L344.816 207.675L324.819 152.529C323.772 149.697 322.124 147.125 319.989 144.99C317.854 142.855 315.282 141.207 312.45 140.16L257.304 120.163L312.45 100.166C315.282 99.1192 317.854 97.4715 319.989 95.3363C322.124 93.2012 323.772 90.6293 324.819 87.7972L344.816 32.6511L364.813 87.7972C365.86 90.6293 367.508 93.2012 369.643 95.3363C371.778 97.4715 374.35 99.1192 377.182 100.166L432.328 120.163L377.182 140.16Z" fill="white"/>
<path d="M485.877 240.327C485.888 241.85 485.425 243.339 484.552 244.587C483.679 245.835 482.439 246.78 481.004 247.291L451.346 258.062L440.579 287.728C440.051 289.15 439.101 290.376 437.857 291.242C436.612 292.108 435.133 292.572 433.617 292.572C432.101 292.572 430.621 292.108 429.377 291.242C428.132 290.376 427.182 289.15 426.655 287.728L415.887 258.062L386.23 247.291C384.808 246.763 383.583 245.813 382.717 244.568C381.852 243.323 381.388 241.843 381.388 240.327C381.388 238.811 381.852 237.331 382.717 236.086C383.583 234.841 384.808 233.891 386.23 233.363L415.887 222.592L426.655 192.925C427.182 191.504 428.132 190.278 429.377 189.412C430.621 188.546 432.101 188.082 433.617 188.082C435.133 188.082 436.612 188.546 437.857 189.412C439.101 190.278 440.051 191.504 440.579 192.925L451.346 222.592L481.004 233.363C482.439 233.874 483.679 234.819 484.552 236.067C485.425 237.315 485.888 238.804 485.877 240.327V240.327Z" fill="#64FAFF"/>
</svg>
